<svg xmlns="http://www.w3.org/2000/svg" viewBox="0 0 64 64">
  <rect width="64" height="64" rx="14" fill="#FBF7EF"/>
  <path d="M32 10 C34 10 35 12.5 35 16 L35 28 L51 35.5 C53 36.5 53 39 51 40 L35 37.5 L35 47 L40.5 51.5 C41.5 52.5 41.5 54.5 39.5 54.5 L32 51.5 L24.5 54.5 C22.5 54.5 22.5 52.5 23.5 51.5 L29 47 L29 37.5 L13 40 C11 39 11 36.5 13 35.5 L29 28 L29 16 C29 12.5 30 10 32 10 Z" fill="#FFFFFF" stroke="#2B6CB0" stroke-width="2.5" stroke-linejoin="round" stroke-linecap="round"/>
  <circle cx="32" cy="18" r="2.2" fill="#F0923B"/>
</svg>
